<svg width="242px" height="321px"
 viewBox="0.00 0.00 241.77 321.00" xmlns="http://www.w3.org/2000/svg" xmlns:xlink="http://www.w3.org/1999/xlink">
<g id="graph0" class="graph" transform="scale(1.0 1.0) rotate(0) translate(4 317)">
<title>de.uniks.pmws2021.chat.model</title>
<polygon fill="white" stroke="transparent" points="-4,4 -4,-317 237.77,-317 237.77,4 -4,4"/>
<!-- User -->
<g id="node1" class="node">
<title>User</title>
<polygon fill="none" stroke="black" points="55.77,-287 55.77,-309 144.77,-309 144.77,-287 55.77,-287"/>
<text text-anchor="start" x="87.06" y="-293.4" font-family="Times,serif" font-size="14.00">User</text>
<polygon fill="none" stroke="black" points="55.77,-231 55.77,-287 144.77,-287 144.77,-231 55.77,-231"/>
<text text-anchor="start" x="58.77" y="-271.4" font-family="Times,serif" font-size="14.00">name :String</text>
<text text-anchor="start" x="58.77" y="-254.6" font-family="Times,serif" font-size="14.00">ip :String</text>
<text text-anchor="start" x="58.77" y="-237.8" font-family="Times,serif" font-size="14.00">status :boolean</text>
</g>
<!-- Chat -->
<g id="node2" class="node">
<title>Chat</title>
<polygon fill="none" stroke="black" points="81.77,-165 81.77,-187 225.77,-187 225.77,-165 81.77,-165"/>
<text text-anchor="start" x="140.55" y="-171.4" font-family="Times,serif" font-size="14.00">Chat</text>
<polygon fill="none" stroke="black" points="81.77,-143 81.77,-165 225.77,-165 225.77,-143 81.77,-143"/>
<text text-anchor="start" x="84.77" y="-149.4" font-family="Times,serif" font-size="14.00">currentUsername :String</text>
</g>
<!-- Chat&#45;&gt;User -->
<g id="edge1" class="edge">
<title>Chat&#45;&gt;User</title>
<path fill="none" stroke="black" d="M140.56,-191.2C134.94,-201.92 128.23,-214.72 121.89,-226.81"/>
<text text-anchor="middle" x="165.62" y="-214.21" font-family="Times,serif" font-size="14.00">availableUser *</text>
<text text-anchor="middle" x="128.9" y="-195.4" font-family="Times,serif" font-size="14.00">chat</text>
</g>
<!-- Message -->
<g id="node3" class="node">
<title>Message</title>
<polygon fill="none" stroke="black" points="51.77,-76.5 51.77,-98.5 147.77,-98.5 147.77,-76.5 51.77,-76.5"/>
<text text-anchor="start" x="75.28" y="-82.9" font-family="Times,serif" font-size="14.00">Message</text>
<polygon fill="none" stroke="black" points="51.77,-3.5 51.77,-76.5 147.77,-76.5 147.77,-3.5 51.77,-3.5"/>
<text text-anchor="start" x="54.77" y="-60.9" font-family="Times,serif" font-size="14.00">sender :String</text>
<text text-anchor="start" x="54.77" y="-44.1" font-family="Times,serif" font-size="14.00">recipient :String</text>
<text text-anchor="start" x="54.77" y="-27.3" font-family="Times,serif" font-size="14.00">content :String</text>
<text text-anchor="start" x="54.77" y="-10.5" font-family="Times,serif" font-size="14.00">messageId :int</text>
</g>
<!-- Message&#45;&gt;User -->
<g id="edge2" class="edge">
<title>Message&#45;&gt;User</title>
<path fill="none" stroke="black" d="M75.51,-103.19C71.06,-114.71 67.09,-127.07 64.77,-139 60.36,-161.69 59.93,-168.4 64.77,-191 67.35,-203.05 71.94,-215.48 76.96,-226.78"/>
<text text-anchor="middle" x="38.48" y="-214.18" font-family="Times,serif" font-size="14.00">availableUser</text>
<text text-anchor="middle" x="46.54" y="-107.39" font-family="Times,serif" font-size="14.00">message *</text>
</g>
<!-- Message&#45;&gt;Chat -->
<g id="edge3" class="edge">
<title>Message&#45;&gt;Chat</title>
<path fill="none" stroke="black" d="M124.24,-103.03C130.27,-115.48 136.47,-128.27 141.62,-138.91"/>
<text text-anchor="middle" x="129.96" y="-126.31" font-family="Times,serif" font-size="14.00">chat</text>
<text text-anchor="middle" x="153.21" y="-107.23" font-family="Times,serif" font-size="14.00">message *</text>
</g>
</g>
</svg>
